<svg xmlns="http://www.w3.org/2000/svg" width="1242" height="2688" viewBox="0 0 1242 2688">
    <defs>
      <linearGradient id="skyBig" x1="0" y1="0" x2="0" y2="1">
        <stop offset="0" stop-color="#CFEBD3"/>
        <stop offset="0.45" stop-color="#E4F3E2"/>
        <stop offset="0.6" stop-color="#F2F6DA"/>
      </linearGradient>
      <radialGradient id="sun" cx="0.78" cy="0.6" r="0.35">
        <stop offset="0" stop-color="#FFF8C6" stop-opacity="1"/>
        <stop offset="0.5" stop-color="#F3F3B8" stop-opacity="0.5"/>
        <stop offset="1" stop-color="#F3F3B8" stop-opacity="0"/>
      </radialGradient>
      <linearGradient id="h1" x1="0" y1="0" x2="0" y2="1"><stop offset="0" stop-color="#C9E8CA"/><stop offset="1" stop-color="#A9D9AE"/></linearGradient>
      <linearGradient id="h2" x1="0" y1="0" x2="0" y2="1"><stop offset="0" stop-color="#9BD29E"/><stop offset="1" stop-color="#6FBB7B"/></linearGradient>
      <linearGradient id="h3" x1="0" y1="0" x2="0" y2="1"><stop offset="0" stop-color="#4FAA6A"/><stop offset="1" stop-color="#2F8456"/></linearGradient>
      <linearGradient id="h4" x1="0" y1="0" x2="0" y2="1"><stop offset="0" stop-color="#2E7D52"/><stop offset="1" stop-color="#1B4F36"/></linearGradient>
      <filter id="glow" x="-20%" y="-20%" width="140%" height="140%"><feGaussianBlur stdDeviation="26"/></filter>
      <filter id="haze" x="-20%" y="-20%" width="140%" height="140%"><feGaussianBlur stdDeviation="60"/></filter>
    </defs>
    <rect width="1242" height="2688" fill="url(#skyBig)"/>
    <!-- sunrise glow on the horizon -->
    <rect width="1242" height="2688" fill="url(#sun)"/>
    <ellipse cx="980" cy="1650" rx="420" ry="220" fill="#FFF6B8" opacity="0.55" filter="url(#haze)"/>
    <!-- soft cloud wisps -->
    <ellipse cx="300" cy="420" rx="520" ry="60" fill="#FFFFFF" opacity="0.35" filter="url(#haze)"/>
    <ellipse cx="900" cy="760" rx="600" ry="50" fill="#FFFFFF" opacity="0.28" filter="url(#haze)"/>
    <!-- hills, far to near -->
    <path d="M -100 1700 C 200 1560, 500 1600, 800 1680 S 1200 1720, 1342 1640 L 1342 2788 L -100 2788 Z" fill="url(#h1)"/>
    <path d="M -100 1860 C 260 1700, 620 1760, 900 1860 S 1250 1900, 1342 1830 L 1342 2788 L -100 2788 Z" fill="url(#h2)"/>
    <path d="M -100 2060 C 220 1900, 560 1940, 860 2060 S 1230 2120, 1342 2040 L 1342 2788 L -100 2788 Z" fill="url(#h3)"/>
    <path d="M -100 2060 C 220 1900, 560 1940, 860 2060 S 1230 2120, 1342 2040" fill="none" stroke="#B9F0B0" stroke-width="26" opacity="0.7" filter="url(#glow)"/>
    <path d="M -100 2330 C 300 2200, 640 2240, 920 2360 S 1260 2400, 1342 2340 L 1342 2788 L -100 2788 Z" fill="url(#h4)"/>
    <path d="M -100 2330 C 300 2200, 640 2240, 920 2360 S 1260 2400, 1342 2340" fill="none" stroke="#9BDC95" stroke-width="22" opacity="0.6" filter="url(#glow)"/>
    <!-- the tile -->
    <g transform="translate(441 780) scale(0.3515625)">
    <defs>
      <linearGradient id="sky" x1="0" y1="0" x2="0.35" y2="1">
        <stop offset="0" stop-color="#93D693"/>
        <stop offset="0.55" stop-color="#55B471"/>
        <stop offset="1" stop-color="#3C9C63"/>
      </linearGradient>
      <linearGradient id="hillBack" x1="0" y1="0" x2="0" y2="1">
        <stop offset="0" stop-color="#3E9C66"/>
        <stop offset="1" stop-color="#2A7E54"/>
      </linearGradient>
      <linearGradient id="hillFront" x1="0" y1="0" x2="0" y2="1">
        <stop offset="0" stop-color="#276F4B"/>
        <stop offset="1" stop-color="#174D35"/>
      </linearGradient>
      <linearGradient id="fan" x1="0" y1="1" x2="1" y2="0">
        <stop offset="0" stop-color="#BFE3C6"/>
        <stop offset="1" stop-color="#F4F1EA"/>
      </linearGradient>
      <filter id="soft" x="-20%" y="-20%" width="140%" height="140%"><feGaussianBlur stdDeviation="18"/></filter>
      <clipPath id="clip"><rect width="1024" height="1024" rx="230"/></clipPath>
    </defs>
    <rect width="1024" height="1024" rx="230" fill="url(#sky)"/>
    <g clip-path="url(#clip)">
      <!-- back hill with a soft lit ridge -->
      <path d="M -80 540 C 160 400, 430 430, 650 530 S 980 600, 1120 510 L 1120 1120 L -80 1120 Z" fill="url(#hillBack)"/>
      <path d="M -80 540 C 160 400, 430 430, 650 530 S 980 600, 1120 510" fill="none" stroke="#8ED696" stroke-width="22" opacity="0.55" filter="url(#soft)"/>
      <!-- front hill -->
      <path d="M -80 740 C 220 620, 560 660, 800 720 S 1040 770, 1120 730 L 1120 1120 L -80 1120 Z" fill="url(#hillFront)"/>
      <path d="M -80 740 C 220 620, 560 660, 800 720 S 1040 770, 1120 730" fill="none" stroke="#5FB97C" stroke-width="18" opacity="0.5" filter="url(#soft)"/>
      <!-- the path: one tapered ribbon from the corner up to the arrow -->
      <path d="M 265.0 1235.0 L 269.6 1218.3 L 274.4 1201.8 L 279.3 1185.5 L 284.3 1169.4 L 289.3 1153.6 L 294.5 1137.8 L 299.8 1122.3 L 305.2 1107.0 L 310.7 1091.9 L 316.3 1076.9 L 322.0 1062.1 L 327.8 1047.5 L 333.7 1033.1 L 339.7 1018.8 L 345.7 1004.7 L 351.9 990.8 L 358.1 977.0 L 364.5 963.4 L 370.9 949.9 L 377.4 936.6 L 384.0 923.5 L 390.6 910.5 L 397.4 897.7 L 404.2 885.0 L 411.1 872.4 L 418.1 860.0 L 425.1 847.7 L 432.2 835.5 L 439.4 823.5 L 446.7 811.6 L 454.0 799.8 L 461.4 788.2 L 468.9 776.6 L 476.4 765.2 L 484.0 753.9 L 491.6 742.7 L 499.3 731.6 L 507.1 720.6 L 514.9 709.6 L 522.8 698.8 L 530.7 688.1 L 538.7 677.4 L 546.7 666.8 L 554.8 656.3 L 562.9 645.9 L 571.1 635.5 L 579.3 625.2 L 587.6 614.9 L 595.9 604.7 L 604.2 594.6 L 612.6 584.5 L 621.0 574.4 L 629.5 564.3 L 637.9 554.3 L 646.4 544.3 L 655.0 534.3 L 663.5 524.3 L 672.1 514.3 L 680.7 504.4 L 689.3 494.3 L 590.7 409.7 L 582.3 419.4 L 573.8 429.1 L 565.3 438.8 L 556.7 448.5 L 548.1 458.1 L 539.4 467.6 L 530.7 477.2 L 521.9 486.7 L 513.0 496.1 L 504.0 505.5 L 495.0 514.9 L 485.9 524.2 L 476.7 533.5 L 467.4 542.8 L 458.0 552.0 L 448.5 561.3 L 439.0 570.5 L 429.4 579.6 L 419.6 588.8 L 409.8 597.9 L 399.9 607.0 L 389.8 616.2 L 379.7 625.3 L 369.5 634.3 L 359.2 643.4 L 348.7 652.5 L 338.2 661.6 L 327.5 670.7 L 316.7 679.8 L 305.8 688.9 L 294.8 698.0 L 283.7 707.1 L 272.4 716.3 L 261.0 725.5 L 249.5 734.7 L 237.9 743.9 L 226.1 753.2 L 214.2 762.5 L 202.2 771.9 L 190.0 781.3 L 177.7 790.7 L 165.3 800.2 L 152.7 809.8 L 140.0 819.4 L 127.1 829.1 L 114.1 838.9 L 100.9 848.7 L 87.6 858.6 L 74.1 868.6 L 60.4 878.7 L 46.6 888.8 L 32.7 899.1 L 18.6 909.5 L 4.3 919.9 L -10.2 930.5 L -24.8 941.2 L -39.6 951.9 L -54.5 962.8 L -69.7 973.9 L -85.0 985.0 Z" fill="#F4F1EA"/>
      <circle cx="640.0" cy="452.0" r="65" fill="#F4F1EA"/>
      <!-- arrowhead: rounded chevron -->
      <path d="M 530 350 L 740 386 L 704 596" fill="none" stroke="#F4F1EA" stroke-width="122" stroke-linecap="round" stroke-linejoin="round"/>
    </g></g>
    <text x="621" y="1330" text-anchor="middle" font-family="Segoe UI, Helvetica, Arial, sans-serif" font-size="150" font-weight="700" fill="#1F5E42" letter-spacing="-2">Onward</text>
  </svg>